<?xml version="1.0" encoding="utf-8"?>
<!-- Generator: Adobe Illustrator 18.1.1, SVG Export Plug-In . SVG Version: 6.00 Build 0)  -->
<svg version="1.1" id="Layer_1" xmlns="http://www.w3.org/2000/svg" xmlns:xlink="http://www.w3.org/1999/xlink" x="0px" y="0px"
	 viewBox="0 0 612 792" enable-background="new 0 0 612 792" xml:space="preserve">
<g>
	<path fill="#52B9E9" d="M303.7,236.8c41.4,49.9,32.9,125.7-18.8,169.3c-51.8,43.7-127.3,38.6-168.7-11.2
		C74.8,345,83.3,269.2,135,225.5C186.8,181.9,262.3,186.9,303.7,236.8z M141.8,233c-47.3,39.9-55,109.2-17.2,154.8
		c37.8,45.6,106.9,50.2,154.2,10.3c47.3-39.9,55-109.2,17.2-154.8C258.2,197.7,189.2,193.1,141.8,233z"/>
	<path fill="#52B9E9" d="M285,315.8c0,41.4-33.6,75-75,75s-75-33.6-75-75c0-41.4,33.6-75,75-75S285,274.4,285,315.8z M210,265.8
		c-27.6,0-50,22.4-50,50c0,27.6,22.4,50,50,50c27.6,0,50-22.4,50-50C260,288.2,237.6,265.8,210,265.8z"/>
	<polygon fill="#52B9E9" points="171.2,205.4 111.9,255 86.4,200.1 121.6,170.7 	"/>
	<polygon fill="#52B9E9" points="241,201.9 163.9,207.9 175,148.4 220.7,144.8 	"/>
	<polygon fill="#52B9E9" points="305.2,244.3 242,199.7 288.6,161 326,187.5 	"/>
	<polygon fill="#52B9E9" points="331.9,309.9 303.1,238.1 363.2,230.9 380.3,273.5 	"/>
	<polygon fill="#52B9E9" points="305.4,379.1 330,305.8 380.4,339.3 365.8,382.7 	"/>
	<polygon fill="#52B9E9" points="248.5,424.9 307.7,375.1 333.3,430 298.2,459.5 	"/>
	<polygon fill="#52B9E9" points="90.4,325.4 114.5,252 54.1,248.7 39.8,292.3 	"/>
	<polygon fill="#52B9E9" points="121.7,396.1 88.9,326.1 42.6,365.1 62,406.6 	"/>
	<polygon fill="#52B9E9" points="183.5,432.9 117.9,391.9 100.2,449.8 139.1,474.1 	"/>
	<polygon fill="#52B9E9" points="255.9,421.1 179.4,432.3 203.5,487.9 248.8,481.2 	"/>
	<rect x="157" y="306.1" fill="#52B9E9" width="105.9" height="19.4"/>
</g>
<g>
	<path fill-rule="evenodd" clip-rule="evenodd" fill="#52B9E9" d="M339.9,575.4c32.1-44.8,94.5-54.9,139.4-22.6
		c44.9,32.3,55.2,94.7,23,139.4c-32.1,44.8-94.5,54.9-139.4,22.6C318,682.6,307.7,620.2,339.9,575.4z M370.7,704.5
		c38.3,27.6,91.7,18.9,119.2-19.4c27.5-38.3,18.7-91.7-19.6-119.2c-38.3-27.6-91.7-18.9-119.2,19.4
		C323.6,623.6,332.4,676.9,370.7,704.5z M366.1,596c21.6-30,63.4-36.8,93.5-15.2c30.1,21.6,37,63.5,15.4,93.5
		c-21.6,30-63.4,36.8-93.5,15.2C351.4,667.9,344.5,626.1,366.1,596z M386.5,610.7c13.5-18.8,39.6-23,58.4-9.5
		c18.8,13.5,23.1,39.7,9.6,58.5c-13.5,18.8-39.6,23-58.4,9.5C377.3,655.7,373,629.5,386.5,610.7z"/>
	<polygon fill="#52B9E9" points="380.7,547 325.7,606.6 300.2,570.6 341.4,525.9 	"/>
	<polygon fill="#52B9E9" points="323.1,624.9 350.3,701.3 306.5,707.2 286.1,649.9 	"/>
	<polygon fill="#52B9E9" points="368.8,714.3 448.3,730.5 430.7,771 371.1,758.8 	"/>
	<polygon fill="#52B9E9" points="469.5,719.2 520.2,655.9 548.2,690 510.2,737.5 	"/>
	<polygon fill="#52B9E9" points="517.8,636.8 486.8,561.8 530.2,553.8 553.5,610 	"/>
	<polygon fill="#52B9E9" points="476,550 395.9,537.2 411.7,496 471.8,505.5 	"/>
</g>
<g>
	<path fill="#52B9E9" d="M171.3,552.5c-10.4,0-18.8,8.9-18.8,19.8c0,11,8.4,19.8,18.8,19.8c10.4,0,18.8-8.9,18.8-19.8
		C190,561.4,181.6,552.5,171.3,552.5z M171.3,585.5c-6.9,0-12.5-5.9-12.5-13.2s5.6-13.2,12.5-13.2c6.3,0,11.5,4.9,12.4,11.3h-9.3
		c-0.4-0.9-1.2-1.6-2.1-1.9v-9.4h-1.8v9.3c-1.1,0.2-1.9,1-2.3,1.9h-9.2v2.1h9.1c0.3,1.1,1.3,2,2.5,2.3v10.6h1.8v-10.7
		c1.1-0.3,1.9-1.2,2.3-2.2h9.3C183.6,579.7,178.1,585.5,171.3,585.5z"/>
	<path fill="#52B9E9" d="M208.8,578l-10.3-7.2l10.2-8.1l-3.8-9.9l-12.3,1.5l4.1-11.7l-8.3-6.2l-10.1,8.9c-0.2-0.1-0.5-0.1-0.7-0.2
		l-4.2-12.5l-10.1,0.8l-2.2,12.3l-9.6-7.1l-7.8,6.9l5.3,12.1l-12.4-0.7l-3.2,10.2l11.1,7.7c0,0.3,0,0.6,0,0.9l-0.3-0.7l-10.2,9.1
		l4.3,9.7l12-2.2l-3.6,12.3l8.6,5.7l9.2-9l5,12.2l10-1.6l1.3-12.1l9.6,7l7.7-6.9l-5.2-11.8l12.4,0.8L208.8,578z M186.3,591.7
		c-10.4,9.3-25.7,8.2-34-2.4c-8.3-10.6-6.6-26.8,3.8-36.2c10.4-9.3,25.7-8.2,34,2.4C198.5,566.2,196.8,582.4,186.3,591.7z
		 M197.6,570.3c0-0.1,0-0.2,0-0.3L197.6,570.3L197.6,570.3L197.6,570.3z"/>
</g>
</svg>
