<svg width="2880" height="1304" viewBox="0 0 2880 1304" version="1.1" xmlns="http://www.w3.org/2000/svg" xmlns:xlink="http://www.w3.org/1999/xlink" xmlns:figma="http://www.figma.com/figma/ns">
<title>pattern</title>
<g id="Canvas" transform="matrix(2 0 0 2 2334 424)" figma:type="canvas">
<g id="pattern" figma:type="frame">
<mask id="mask0_alpha" mask-type="alpha">
<g id="Rectangle" figma:type="vector">
<use xlink:href="#path0_fill" transform="translate(-1167 -212)" fill="url(#paint0_linear)"/>
</g>
</mask>
<g id="Polygon" mask="url(#mask0_alpha)" figma:type="vector">
<use class="polygon" xlink:href="#path1_fill" transform="matrix(6.12323e-17 1 -1 6.12323e-17 -814.799 -55.4293)" fill="#FFFFFF" opacity="0.1"/>
</g>
<g id="Polygon Copy 18" mask="url(#mask0_alpha)" figma:type="vector">
<use class="polygon" xlink:href="#path1_fill" transform="matrix(6.12323e-17 1 -1 6.12323e-17 -935.299 155.148)" fill="#FFFFFF" opacity="0.1"/>
</g>
<g id="Polygon Copy 22" mask="url(#mask0_alpha)" figma:type="vector">
<use class="polygon" xlink:href="#path1_fill" transform="matrix(6.12323e-17 1 -1 6.12323e-17 -934.799 15.416)" fill="#4BE6FF" opacity="0.2"/>
</g>
<g id="Polygon Copy 23" mask="url(#mask0_alpha)" figma:type="vector">
<use class="polygon" xlink:href="#path1_fill" transform="matrix(6.12323e-17 1 -1 6.12323e-17 -935.5 -124.084)" fill="#FFFFFF" opacity="0.1"/>
</g>
<g id="Polygon Copy 32" mask="url(#mask0_alpha)" figma:type="vector">
<use class="polygon" xlink:href="#path1_fill" transform="matrix(6.12323e-17 1 -1 6.12323e-17 -1056.3 84.1481)" fill="#C5C5C5" opacity="0.1"/>
</g>
<g id="Polygon Copy 8" mask="url(#mask0_alpha)" figma:type="vector">
<use class="polygon" xlink:href="#path1_fill" transform="matrix(6.12323e-17 1 -1 6.12323e-17 -331.799 -56.584)" fill="#FFFFFF" opacity="0.1"/>
</g>
<g id="Polygon Copy 16" mask="url(#mask0_alpha)" figma:type="vector">
<use class="polygon" xlink:href="#path1_fill" transform="matrix(6.12323e-17 1 -1 6.12323e-17 -331.799 83.416)" fill="#FFFFFF" opacity="0.1"/>
</g>
<g id="Polygon Copy 3" mask="url(#mask0_alpha)" figma:type="vector">
<use class="polygon" xlink:href="#path1_fill" transform="matrix(6.12323e-17 1 -1 6.12323e-17 -572.299 -55.8519)" fill="#FFFFFF" opacity="0.1"/>
</g>
<g id="Polygon Copy 9" mask="url(#mask0_alpha)" figma:type="vector">
<use class="polygon" xlink:href="#path1_fill" transform="matrix(6.12323e-17 1 -1 6.12323e-17 -89.7991 -56.584)" fill="#FFFFFF" opacity="0.1"/>
</g>
<g id="Polygon Copy 28" mask="url(#mask0_alpha)" figma:type="vector">
<use class="polygon" xlink:href="#path1_fill" transform="matrix(6.12323e-17 1 -1 6.12323e-17 31.6169 153.416)" fill="#C5C5C5" opacity="0.1"/>
</g>
<g id="Polygon Copy 24" mask="url(#mask0_alpha)" figma:type="vector">
<use class="polygon" xlink:href="#path1_fill" transform="matrix(6.12323e-17 1 -1 6.12323e-17 -210.383 153.832)" fill="#C5C5C5" opacity="0.1"/>
</g>
<g id="Polygon Copy 7" mask="url(#mask0_alpha)" figma:type="vector">
<use class="polygon" xlink:href="#path1_fill" transform="matrix(6.12323e-17 1 -1 6.12323e-17 -572.299 84.1481)" fill="#C5C5C5" opacity="0.1"/>
</g>
<g id="Polygon Copy 10" mask="url(#mask0_alpha)" figma:type="vector">
<use class="polygon" xlink:href="#path1_fill" transform="matrix(6.12323e-17 1 -1 6.12323e-17 -89.7991 83.416)" fill="#C5C5C5" opacity="0.1"/>
</g>
<g id="Polygon Copy 25" mask="url(#mask0_alpha)" figma:type="vector">
<use class="polygon" xlink:href="#path1_fill" transform="matrix(6.12323e-17 1 -1 6.12323e-17 -209.383 293.832)" fill="#C5C5C5" opacity="0.1"/>
</g>
<g id="Polygon Copy" mask="url(#mask0_alpha)" figma:type="vector">
<use class="polygon" xlink:href="#path1_fill" transform="matrix(6.12323e-17 1 -1 6.12323e-17 -693.933 -125.584)" fill="#FFFFFF" opacity="0.1"/>
</g>
<g id="Polygon Copy 19" mask="url(#mask0_alpha)" figma:type="vector">
<use class="polygon" xlink:href="#path1_fill" transform="matrix(6.12323e-17 1 -1 6.12323e-17 -814.507 85.3239)" fill="#FFFFFF" opacity="0.1"/>
</g>
<g id="Polygon Copy 4" mask="url(#mask0_alpha)" figma:type="vector">
<use class="polygon" xlink:href="#path1_fill" transform="matrix(6.12323e-17 1 -1 6.12323e-17 -452.799 -126.584)" fill="#FFFFFF" opacity="0.1"/>
</g>
<g id="Polygon Copy 12" mask="url(#mask0_alpha)" figma:type="vector">
<use class="polygon" xlink:href="#path1_fill" transform="matrix(6.12323e-17 1 -1 6.12323e-17 31.2009 -126.584)" fill="#4BE6FF" opacity="0.2"/>
</g>
<g id="Polygon Copy 29" mask="url(#mask0_alpha)" figma:type="vector">
<use class="polygon" xlink:href="#path1_fill" transform="matrix(6.12323e-17 1 -1 6.12323e-17 152.201 83.416)" fill="#FFFFFF" opacity="0.1"/>
</g>
<g id="Polygon Copy 35" mask="url(#mask0_alpha)" figma:type="vector">
<use class="polygon" xlink:href="#path1_fill" transform="matrix(6.12323e-17 1 -1 6.12323e-17 272.201 -125.584)" fill="#FFFFFF" opacity="0.2"/>
</g>
<g id="Polygon Copy 34" mask="url(#mask0_alpha)" figma:type="vector">
<use class="polygon" xlink:href="#path1_fill" transform="matrix(6.12323e-17 1 -1 6.12323e-17 272.201 -265.584)" fill="#FFFFFF" opacity="0.1"/>
</g>
<g id="Polygon Copy 33" mask="url(#mask0_alpha)" figma:type="vector">
<use class="polygon" xlink:href="#path1_fill" transform="matrix(6.12323e-17 1 -1 6.12323e-17 151.201 -196.584)" fill="#FFFFFF" opacity="0.1"/>
</g>
<g id="Polygon Copy 6" mask="url(#mask0_alpha)" figma:type="vector">
<use class="polygon" xlink:href="#path1_fill" transform="matrix(6.12323e-17 1 -1 6.12323e-17 -573.799 -195.584)" fill="#FFFFFF" opacity="0.2"/>
</g>
<g id="Polygon Copy 13" mask="url(#mask0_alpha)" figma:type="vector">
<use class="polygon" xlink:href="#path1_fill" transform="matrix(6.12323e-17 1 -1 6.12323e-17 -89.7991 -196.584)" fill="#FFFFFF" opacity="0.2"/>
</g>
<g id="Polygon Copy 2" mask="url(#mask0_alpha)" figma:type="vector">
<use class="polygon" xlink:href="#path1_fill" transform="matrix(6.12323e-17 1 -1 6.12323e-17 -693.799 14.5707)" fill="#FFFFFF" opacity="0.1"/>
</g>
<g id="Polygon Copy 21" mask="url(#mask0_alpha)" figma:type="vector">
<use class="polygon" xlink:href="#path1_fill" transform="matrix(6.12323e-17 1 -1 6.12323e-17 -693.5 154.916)" fill="#FFFFFF" opacity="0.1"/>
</g>
<g id="Polygon Copy 36" mask="url(#mask0_alpha)" figma:type="vector">
<use class="polygon" xlink:href="#path1_fill" transform="matrix(6.12323e-17 1 -1 6.12323e-17 -693.799 294.416)" fill="#FFFFFF" opacity="0.2"/>
</g>
<g id="Polygon Copy 20" mask="url(#mask0_alpha)" figma:type="vector">
<use class="polygon" xlink:href="#path1_fill" transform="matrix(6.12323e-17 1 -1 6.12323e-17 -814.5 224.916)" fill="#FFFFFF" opacity="0.1"/>
</g>
<g id="Polygon Copy 31" mask="url(#mask0_alpha)" figma:type="vector">
<use class="polygon" xlink:href="#path1_fill" transform="matrix(6.12323e-17 1 -1 6.12323e-17 -1058.3 224.993)" fill="#FFFFFF" opacity="0.3"/>
</g>
<g id="Polygon Copy 14" mask="url(#mask0_alpha)" figma:type="vector">
<use class="polygon" xlink:href="#path1_fill" transform="matrix(6.12323e-17 1 -1 6.12323e-17 -210.799 13.416)" fill="#FFFFFF" opacity="0.1"/>
</g>
<g id="Polygon Copy 26" mask="url(#mask0_alpha)" figma:type="vector">
<use class="polygon" xlink:href="#path1_fill" transform="matrix(6.12323e-17 1 -1 6.12323e-17 -330.383 223.832)" fill="#C5C5C5" opacity="0.1"/>
</g>
<g id="Polygon Copy 5" mask="url(#mask0_alpha)" figma:type="vector">
<use class="polygon" xlink:href="#path1_fill" transform="matrix(6.12323e-17 1 -1 6.12323e-17 -451.799 13.416)" fill="#FFFFFF" opacity="0.1"/>
</g>
<g id="Polygon Copy 17" mask="url(#mask0_alpha)" figma:type="vector">
<use class="polygon" xlink:href="#path1_fill" transform="matrix(6.12323e-17 1 -1 6.12323e-17 -451.799 153.416)" fill="#C5C5C5" opacity="0.1"/>
</g>
<g id="Polygon Copy 15" mask="url(#mask0_alpha)" figma:type="vector">
<use class="polygon" xlink:href="#path1_fill" transform="matrix(6.12323e-17 1 -1 6.12323e-17 31.2009 13.416)" fill="#FFFFFF" opacity="0.1"/>
</g>
<g id="Polygon Copy 30" mask="url(#mask0_alpha)" figma:type="vector">
<use class="polygon" xlink:href="#path1_fill" transform="matrix(6.12323e-17 1 -1 6.12323e-17 151.617 223.416)" fill="#4BE6FF" opacity="0.2"/>
</g>
<g id="Polygon Copy 27" mask="url(#mask0_alpha)" figma:type="vector">
<use class="polygon" xlink:href="#path1_fill" transform="matrix(6.12323e-17 1 -1 6.12323e-17 -88.3831 223.832)" fill="#C5C5C5" opacity="0.4"/>
</g>
</g>
</g>
<defs>
<linearGradient id="paint0_linear" x1="0" y1="0" x2="1" y2="0" gradientUnits="userSpaceOnUse" gradientTransform="matrix(1229.19 441.505 -909.539 596.671 129.65 174.197)">
<stop offset="0" stop-color="#EEEEEE" stop-opacity="0.399938"/>
<stop offset="0.720324" stop-color="#E8E8E8" stop-opacity="0.238338"/>
<stop offset="1" stop-color="#D8D8D8" stop-opacity="0.693671"/>
</linearGradient>
<path id="path0_fill" fill-rule="evenodd" d="M 0 0L 1440 0L 1440 699L 0 699L 0 0Z"/>
<path id="path1_fill" fill-rule="evenodd" d="M 77.5 0L 144.617 38.75L 144.617 116.25L 77.5 155L 10.383 116.25L 10.383 38.75L 77.5 0Z"/>
</defs>
</svg>
