<svg xmlns="http://www.w3.org/2000/svg" xmlns:xlink="http://www.w3.org/1999/xlink" version="1.1" x="0px" y="0px" viewBox="0 0 100 125" style="enable-background:new 0 0 100 100;" xml:space="preserve"><g><path fill="#ffffff" d="M87.8,12.8c-1-1-2.6-1-3.5,0L50.5,46.5L15.8,11.7c-1-1-2.6-1-3.5,0c-1,1-1,2.6,0,3.5L47,50L12.2,84.8c-1,1-1,2.6,0,3.5   c0.5,0.5,1.1,0.7,1.8,0.7s1.3-0.2,1.8-0.7l34.8-34.8l33.7,33.7c0.5,0.5,1.1,0.7,1.8,0.7s1.3-0.2,1.8-0.7c1-1,1-2.6,0-3.5L54.1,50   l33.7-33.7C88.7,15.3,88.7,13.7,87.8,12.8z"/></g></svg>
