<?xml version="1.0" encoding="utf-8"?>
<!-- Generator: Adobe Illustrator 21.0.2, SVG Export Plug-In . SVG Version: 6.00 Build 0)  -->
<svg version="1.1" id="Layer_1" xmlns="http://www.w3.org/2000/svg" xmlns:xlink="http://www.w3.org/1999/xlink" x="0px" y="0px"
	 viewBox="0 0 100 100" style="enable-background:new 0 0 100 100;" xml:space="preserve">
<path d="M99.5,43.1c-0.2-1.8-0.6-3.5-1-5.2c-1.2-4.9-3.2-9.5-5.7-13.7c-1.1-1.8-2.3-3.6-3.7-5.2C80,7.4,65.8,0,50,0
	C34.2,0,20,7.4,10.8,19c-1.3,1.7-2.5,3.4-3.7,5.2C4.6,28.4,2.7,33,1.5,37.9c-0.4,1.7-0.8,3.5-1,5.2C0.2,45.4,0,47.7,0,50
	s0.2,4.6,0.5,6.9c0.2,1.8,0.6,3.5,1,5.2c1.2,4.9,3.2,9.5,5.7,13.7c1.1,1.8,2.3,3.6,3.6,5.2C20,92.6,34.2,100,50,100s30-7.4,39.2-19
	c1.3-1.7,2.5-3.4,3.7-5.2c2.5-4.2,4.5-8.8,5.7-13.7c0.4-1.7,0.8-3.5,1-5.2c0.3-2.2,0.5-4.5,0.5-6.9S99.8,45.4,99.5,43.1z M36,7.5
	c-2.6,3-4.9,6.9-6.7,11.5H17.8C22.8,13.8,29,9.8,36,7.5z M13.5,24.2h13.9c-1.3,4.2-2.3,8.8-2.9,13.7H6.9
	C8.3,32.9,10.5,28.3,13.5,24.2z M5.2,50c0-2.3,0.2-4.6,0.5-6.9h18.2c-0.2,2.2-0.2,4.5-0.2,6.9s0.1,4.6,0.2,6.9H5.8
	C5.4,54.6,5.2,52.3,5.2,50z M13.5,75.8c-2.9-4.1-5.2-8.7-6.6-13.7h17.5c0.6,4.9,1.6,9.5,2.9,13.7H13.5z M17.8,81h11.5
	c1.9,4.5,4.1,8.4,6.7,11.5C29,90.2,22.8,86.2,17.8,81z M47.4,94.4C42.6,93.1,38.2,88.2,35,81h12.4C47.4,87,47.4,91.6,47.4,94.4z
	 M47.4,75.8H32.9c-1.4-4.1-2.5-8.8-3.2-13.7h17.6C47.4,67,47.4,71.6,47.4,75.8z M47.4,50c0,2.3,0,4.6,0,6.9H29.2
	c-0.2-2.2-0.3-4.5-0.3-6.9c0-2.3,0.1-4.6,0.3-6.9h18.2C47.4,45.4,47.4,47.7,47.4,50z M47.4,37.9H29.7c0.7-5,1.8-9.6,3.2-13.7h14.5
	C47.4,28.4,47.4,33,47.4,37.9z M47.4,19H35c3.3-7.1,7.6-12,12.4-13.4C47.4,8.4,47.4,13,47.4,19z M86.5,24.2
	c2.9,4.1,5.2,8.7,6.6,13.7H75.6c-0.6-4.9-1.6-9.5-2.9-13.7H86.5z M82.2,19H70.8c-1.9-4.5-4.1-8.4-6.7-11.5C71,9.8,77.2,13.8,82.2,19
	z M52.6,5.6C57.4,6.9,61.8,11.8,65,19H52.6V5.6z M52.6,24.2h14.5c1.4,4.1,2.5,8.8,3.2,13.7H52.6V24.2z M52.6,43.1h18.2
	c0.2,2.2,0.3,4.5,0.3,6.9s-0.1,4.6-0.3,6.9H52.6V43.1z M52.6,62.1h17.6c-0.7,5-1.8,9.6-3.2,13.7H52.6V62.1z M52.6,94.4V81H65
	C61.8,88.2,57.4,93.1,52.6,94.4z M64,92.5c2.6-3,4.9-6.9,6.7-11.5h11.5C77.2,86.2,71,90.2,64,92.5z M86.5,75.8H72.6
	c1.3-4.2,2.3-8.8,2.9-13.7h17.5C91.7,67.1,89.5,71.7,86.5,75.8z M94.2,56.9H76.1c0.2-2.2,0.2-4.5,0.2-6.9c0-2.3-0.1-4.6-0.2-6.9
	h18.2c0.3,2.2,0.5,4.5,0.5,6.9C94.8,52.3,94.6,54.6,94.2,56.9z"/>
</svg>
